<?xml version="1.0" encoding="UTF-8"?> 
 <!DOCTYPE svg  PUBLIC '-//W3C//DTD SVG 1.1//EN' 'http://www.w3.org/Graphics/SVG/1.1/DTD/svg11.dtd'> 
 <svg version="1.1" viewBox="0 0 1000 1000" xml:space="preserve" xmlns="http://www.w3.org/2000/svg"> 
 	<path d="M 191 191 L303 191 L303 173 L463 173 L463 207 L504 207 L504 194 L599 194 L599 109 L614 109 L614 104 L774 104 L774 264 L759 264 L759 269 L742 269 L742 372 L732 372 L732 462 L720 462 L720 561 L713 561 L713 665 L553 665 L553 505 L560 505 L560 401 L572 401 L572 367 L417 367 L417 333 L351 333 L351 351 L191 351 z"/>

 </svg>