<?xml version="1.0" encoding="UTF-8"?> 
 <!DOCTYPE svg  PUBLIC '-//W3C//DTD SVG 1.1//EN' 'http://www.w3.org/Graphics/SVG/1.1/DTD/svg11.dtd'> 
 <svg version="1.1" viewBox="0 0 1000 1000" xml:space="preserve" xmlns="http://www.w3.org/2000/svg"> 
 	<path d="M 60.47242 110.47242 L114.47242 110.47242 L114.47242 113.96331 L160.42084 113.96331 L160.42084 117.97896 L206.89401 117.97896 L206.89401 118.73865 L236.42493 118.73865 L236.42493 116.594826 L290.42493 116.594826 L290.42493 119.85954 L336.14716 119.85954 L336.14716 121.035706 L379.78085 121.035706 L379.78085 121.97743 L423.18008 121.97743 L423.18008 130.21768 L424.76205 130.21768 L424.76205 144.48236 L451.10907 144.48236 L451.10907 198.48236 L424.9414 198.48236 L424.9414 231.52728 L419.0089 231.52728 L419.0089 272.72504 L417.94073 272.72504 L417.94073 318.7876 L415.7449 318.7876 L415.7449 363.72202 L409.14163 363.72202 L409.14163 404.24902 L408.60507 404.24902 L408.60507 450.84268 L354.60507 450.84268 L354.60507 396.84268 L355.14163 396.84268 L355.14163 350.24902 L361.7449 350.24902 L361.7449 309.72202 L363.94073 309.72202 L363.94073 264.7876 L365.0089 264.7876 L365.0089 218.72504 L370.9414 218.72504 L370.9414 184.21768 L370.76205 184.21768 L370.76205 178.22546 L357.17477 178.22546 L357.17477 175.0357 L325.78085 175.0357 L325.78085 173.85954 L282.14716 173.85954 L282.14716 170.59482 L250.11122 170.59482 L250.11122 172.73865 L196.11122 172.73865 L196.11122 171.97896 L152.89401 171.97896 L152.89401 167.96332 L106.42084 167.96332 L106.42084 164.47241 L60.47242 164.47241 z"/>
<path d="M 530.4724 90.47242 L584.4724 90.47242 L584.4724 94.241394 L630.4104 94.241394 L630.4104 98.53513 L676.87305 98.53513 L676.87305 99.57289 L706.38306 99.57289 L706.38306 97.70716 L760.38306 97.70716 L760.38306 101.24996 L806.09485 101.24996 L806.09485 102.70421 L849.718 102.70421 L849.718 156.70421 L795.718 156.70421 L795.718 155.24997 L752.09485 155.24997 L752.09485 151.70715 L720.07983 151.70715 L720.07983 153.57289 L666.07983 153.57289 L666.07983 152.53513 L622.87305 152.53513 L622.87305 148.2414 L576.41034 148.2414 L576.41034 144.47241 L530.4724 144.47241 z"/>
<path d="M 330.4724 590.4724 L384.4724 590.4724 L384.4724 594.2414 L430.41037 594.2414 L430.41037 598.53516 L476.87308 598.53516 L476.87308 599.5729 L506.38306 599.5729 L506.38306 597.70715 L560.38306 597.70715 L560.38306 601.24994 L606.09485 601.24994 L606.09485 602.7042 L649.718 602.7042 L649.718 656.7042 L595.718 656.7042 L595.718 655.25 L552.09485 655.25 L552.09485 651.70715 L520.07983 651.70715 L520.07983 653.5729 L466.0798 653.5729 L466.0798 652.53516 L422.87308 652.53516 L422.87308 648.2414 L376.41037 648.2414 L376.41037 644.4724 L330.4724 644.4724 z"/>

 </svg>