<?xml version="1.0" encoding="UTF-8"?> 
 <!DOCTYPE svg  PUBLIC '-//W3C//DTD SVG 1.1//EN' 'http://www.w3.org/Graphics/SVG/1.1/DTD/svg11.dtd'> 
 <svg version="1.1" viewBox="0 0 1000 1000" xml:space="preserve" xmlns="http://www.w3.org/2000/svg"> 
 	<path d="M 60.47242 110.47242 L114.47242 110.47242 L114.47242 114.75956 L160.38615 114.75956 L160.38615 119.57146 L206.82465 119.57146 L206.82465 121.127396 L236.28621 121.127396 L236.28621 119.77982 L253.06877 119.77982 L253.06877 118.02662 L307.0688 118.02662 L307.0688 134.15424 L325.13232 134.15424 L325.13232 126.01458 L364.84482 126.01458 L364.84482 122.88168 L370.97473 122.88168 L370.97473 122.73924 L424.97473 122.73924 L424.97473 176.73924 L418.84482 176.73924 L418.84482 176.88168 L412.22653 176.88168 L412.22653 217.40721 L411.67496 217.40721 L411.67496 263.9994 L408.66153 263.9994 L408.66153 308.13004 L405.6215 308.13004 L405.6215 352.234 L400.5704 352.234 L400.5704 394.32672 L346.5704 394.32672 L346.5704 340.32672 L351.6215 340.32672 L351.6215 298.234 L354.66153 298.234 L354.66153 254.13004 L357.67496 254.13004 L357.67496 209.9994 L358.22653 209.9994 L358.22653 180.01459 L338.15424 180.01459 L338.15424 188.15424 L298.68063 188.15424 L298.68063 214.94412 L290.0581 214.94412 L290.0581 257.6272 L281.92328 257.6272 L281.92328 300.79803 L274.45483 300.79803 L274.45483 344.6352 L265.27576 344.6352 L265.27576 386.76178 L211.27574 386.76178 L211.27574 332.76178 L220.45482 332.76178 L220.45482 290.6352 L227.92326 290.6352 L227.92326 246.79802 L236.05809 246.79802 L236.05809 203.62721 L244.68063 203.62721 L244.68063 175.1274 L196.00719 175.1274 L196.00719 173.57146 L152.82465 173.57146 L152.82465 168.75955 L106.386154 168.75955 L106.386154 164.47241 L60.47242 164.47241 z"/>
<path d="M 520.4724 30.472418 L532.47363 30.472418 L532.47363 27.699657 L586.47363 27.699657 L586.47363 73.95632 L593.58734 73.95632 L593.58734 116.957016 L597.44507 116.957016 L597.44507 157.05421 L598.39935 157.05421 L598.39935 202.55998 L604.76215 202.55998 L604.76215 245.97714 L609.0364 245.97714 L609.0364 289.15988 L613.0762 289.15988 L613.0762 295.0804 L615.32947 295.0804 L615.32947 349.0804 L608.5347 349.0804 L608.5347 393.03757 L600.0294 393.03757 L600.0294 435.28406 L596.0849 435.28406 L596.0849 482.09143 L586.02856 482.09143 L586.02856 522.787 L580.83655 522.787 L580.83655 568.3468 L526.83655 568.3468 L526.83655 514.3468 L532.02856 514.3468 L532.02856 468.787 L542.0849 468.787 L542.0849 428.09143 L546.0294 428.09143 L546.0294 381.28406 L554.5347 381.28406 L554.5347 339.03757 L559.0762 339.03757 L559.0762 299.97714 L555.0364 299.97714 L555.0364 256.56 L550.76215 256.56 L550.76215 211.05421 L544.39935 211.05421 L544.39935 170.95702 L543.44507 170.95702 L543.44507 127.95632 L539.58734 127.95632 L539.58734 84.47242 L520.4724 84.47242 z"/>
<path d="M 530.4724 220.47241 L584.4724 220.47241 L584.4724 221.34732 L630.4332 221.34732 L630.4332 244.83229 L667.5399 244.83229 L667.5399 298.83228 L613.5399 298.83228 L613.5399 278.38452 L575.7431 278.38452 L575.7431 274.4724 L530.4724 274.4724 z"/>

 </svg>