<?xml version="1.0" encoding="UTF-8"?> 
 <!DOCTYPE svg  PUBLIC '-//W3C//DTD SVG 1.1//EN' 'http://www.w3.org/Graphics/SVG/1.1/DTD/svg11.dtd'> 
 <svg version="1.1" viewBox="0 0 1000 1000" xml:space="preserve" xmlns="http://www.w3.org/2000/svg"> 
 	<path d="M 60.47242 110.47242 L114.47242 110.47242 L114.47242 113.96331 L160.42084 113.96331 L160.42084 117.97896 L206.89401 117.97896 L206.89401 118.73865 L236.42493 118.73865 L236.42493 116.594826 L290.42493 116.594826 L290.42493 119.85954 L336.14716 119.85954 L336.14716 121.035706 L379.78085 121.035706 L379.78085 121.97743 L423.18008 121.97743 L423.18008 130.21768 L424.76205 130.21768 L424.76205 144.48236 L451.10907 144.48236 L451.10907 198.48236 L424.9414 198.48236 L424.9414 231.52728 L419.0089 231.52728 L419.0089 272.72504 L417.94073 272.72504 L417.94073 318.7876 L415.7449 318.7876 L415.7449 363.72202 L409.14163 363.72202 L409.14163 404.24902 L408.60507 404.24902 L408.60507 450.84268 L354.60507 450.84268 L354.60507 396.84268 L355.14163 396.84268 L355.14163 350.24902 L361.7449 350.24902 L361.7449 309.72202 L363.94073 309.72202 L363.94073 264.7876 L365.0089 264.7876 L365.0089 218.72504 L370.9414 218.72504 L370.9414 184.21768 L370.76205 184.21768 L370.76205 178.22546 L357.17477 178.22546 L357.17477 175.0357 L325.78085 175.0357 L325.78085 173.85954 L282.14716 173.85954 L282.14716 170.59482 L250.11122 170.59482 L250.11122 172.73865 L196.11122 172.73865 L196.11122 171.97896 L152.89401 171.97896 L152.89401 167.96332 L106.42084 167.96332 L106.42084 164.47241 L60.47242 164.47241 z"/>
<path d="M 520.4724 30.472418 L532.47363 30.472418 L532.47363 27.699657 L586.47363 27.699657 L586.47363 73.95632 L593.58734 73.95632 L593.58734 116.957016 L597.44507 116.957016 L597.44507 157.05421 L598.39935 157.05421 L598.39935 202.55998 L604.76215 202.55998 L604.76215 245.97714 L609.0364 245.97714 L609.0364 289.15988 L613.0762 289.15988 L613.0762 295.0804 L615.32947 295.0804 L615.32947 349.0804 L608.5347 349.0804 L608.5347 393.03757 L600.0294 393.03757 L600.0294 435.28406 L596.0849 435.28406 L596.0849 482.09143 L586.02856 482.09143 L586.02856 522.787 L580.83655 522.787 L580.83655 568.3468 L526.83655 568.3468 L526.83655 514.3468 L532.02856 514.3468 L532.02856 468.787 L542.0849 468.787 L542.0849 428.09143 L546.0294 428.09143 L546.0294 381.28406 L554.5347 381.28406 L554.5347 339.03757 L559.0762 339.03757 L559.0762 299.97714 L555.0364 299.97714 L555.0364 256.56 L550.76215 256.56 L550.76215 211.05421 L544.39935 211.05421 L544.39935 170.95702 L543.44507 170.95702 L543.44507 127.95632 L539.58734 127.95632 L539.58734 84.47242 L520.4724 84.47242 z"/>
<path d="M 530.4724 220.47241 L584.4724 220.47241 L584.4724 221.34732 L630.4332 221.34732 L630.4332 244.83229 L667.5399 244.83229 L667.5399 298.83228 L613.5399 298.83228 L613.5399 278.38452 L575.7431 278.38452 L575.7431 274.4724 L530.4724 274.4724 z"/>

 </svg>