<?xml version="1.0" encoding="UTF-8"?> 
 <!DOCTYPE svg  PUBLIC '-//W3C//DTD SVG 1.1//EN' 'http://www.w3.org/Graphics/SVG/1.1/DTD/svg11.dtd'> 
 <svg version="1.1" viewBox="0 0 1000 1000" xml:space="preserve" xmlns="http://www.w3.org/2000/svg"> 
 	<path d="M 60 110 L152 110 L152 113 L229 113 L229 115 L306 115 L306 119 L384 119 L384 211 L292 211 L292 207 L214 207 L214 205 L137 205 L137 202 L60 202 z"/>
<path d="M 405 148 L405 240 L497 240 L497 148 z"/>
<path d="M 371 116 L371 208 L463 208 L463 116 z"/>
<path d="M 366 199 L366 291 L458 291 L458 199 z"/>
<path d="M 360 279 L360 371 L452 371 L452 279 z"/>
<path d="M 355 362 L355 454 L447 454 L447 362 z"/>
<path d="M 530 90 L622 90 L622 93 L699 93 L699 96 L776 96 L776 100 L854 100 L854 192 L762 192 L762 188 L684 188 L684 185 L607 185 L607 182 L530 182 z"/>

 </svg>