<?xml version="1.0" encoding="UTF-8"?> 
 <!DOCTYPE svg  PUBLIC '-//W3C//DTD SVG 1.1//EN' 'http://www.w3.org/Graphics/SVG/1.1/DTD/svg11.dtd'> 
 <svg version="1.1" viewBox="0 0 1000 1000" xml:space="preserve" xmlns="http://www.w3.org/2000/svg"> 
 	<path d="M 64.10098 239.20403 L76.002396 239.20403 L76.002396 198.86285 L81.79196 198.86285 L81.79196 152.40982 L92.14238 152.40982 L92.14238 110.51767 L110.543915 110.51767 L110.543915 109.67053 L154.4788 109.67053 L154.4788 106.1034 L208.4788 106.1034 L208.4788 109.43227 L213.14432 109.43227 L213.14432 124.16531 L255.06389 124.16531 L255.06389 136.80981 L294.8949 136.80981 L294.8949 154.66426 L328.71606 154.66426 L328.71606 147.30597 L370.4724 147.30597 L370.4724 140.47241 L424.4724 140.47241 L424.4724 194.47241 L382.71606 194.47241 L382.71606 201.30597 L341.4845 201.30597 L341.4845 208.66426 L340.13446 208.66426 L340.13446 208.86284 L286.13446 208.86284 L286.13446 190.80981 L240.8949 190.80981 L240.8949 178.16531 L201.06389 178.16531 L201.06389 163.43227 L164.54391 163.43227 L164.54391 163.67053 L146.14238 163.67053 L146.14238 164.51767 L135.79196 164.51767 L135.79196 206.40982 L130.0024 206.40982 L130.0024 252.86285 L118.10098 252.86285 L118.10098 256.74136 L118.68332 256.74136 L118.68332 299.53796 L133.65189 299.53796 L133.65189 337.92712 L144.213 337.92712 L144.213 342.02426 L148.75154 342.02426 L148.75154 396.02426 L135.08948 396.02426 L135.08948 398.24014 L160.74985 398.24014 L160.74985 392.85696 L172.77985 392.85696 L172.77985 390.626 L226.77985 390.626 L226.77985 393.6821 L271.3275 393.6821 L271.3275 395.69617 L314.83313 395.69617 L314.83313 399.89133 L360.5199 399.89133 L360.5199 402.4559 L404.57605 402.4559 L404.57605 456.4559 L350.57605 456.4559 L350.57605 453.89133 L306.5199 453.89133 L306.5199 449.69617 L260.83313 449.69617 L260.83313 447.6821 L217.32751 447.6821 L217.32751 444.626 L214.74985 444.626 L214.74985 446.85696 L171.9732 446.85696 L171.9732 452.24014 L129.97728 452.24014 L129.97728 458.404 L75.97728 458.404 L75.97728 404.404 L81.08948 404.404 L81.08948 384.01828 L90.213 384.01828 L90.213 353.53796 L79.65188 353.53796 L79.65188 310.74136 L64.68332 310.74136 L64.68332 293.20404 L64.10098 293.20404 z"/>
<path d="M 196.3402 336.4787 L201.04767 336.4787 L201.04767 296.15155 L202.85164 296.15155 L202.85164 260.43427 L201.39966 260.43427 L201.39966 214.47241 L200.47241 214.47241 L200.47241 160.47241 L254.47241 160.47241 L254.47241 206.43427 L255.39966 206.43427 L255.39966 252.92088 L256.85162 252.92088 L256.85162 306.9209 L255.04767 306.9209 L255.04767 350.15155 L250.3402 350.15155 L250.3402 382.21436 L251.04126 382.21436 L251.04126 436.21436 L197.04126 436.21436 L197.04126 390.4787 L196.3402 390.4787 z"/>
<path d="M 530.4724 90.47242 L584.4724 90.47242 L584.4724 94.241394 L630.4104 94.241394 L630.4104 98.53513 L676.87305 98.53513 L676.87305 99.57289 L706.38306 99.57289 L706.38306 97.70716 L760.38306 97.70716 L760.38306 101.24996 L806.09485 101.24996 L806.09485 102.70421 L849.718 102.70421 L849.718 156.70421 L795.718 156.70421 L795.718 155.24997 L752.09485 155.24997 L752.09485 151.70715 L720.07983 151.70715 L720.07983 153.57289 L666.07983 153.57289 L666.07983 152.53513 L622.87305 152.53513 L622.87305 148.2414 L576.41034 148.2414 L576.41034 144.47241 L530.4724 144.47241 z"/>

 </svg>