<?xml version="1.0" encoding="UTF-8"?> 
 <!DOCTYPE svg  PUBLIC '-//W3C//DTD SVG 1.1//EN' 'http://www.w3.org/Graphics/SVG/1.1/DTD/svg11.dtd'> 
 <svg version="1.1" viewBox="0 0 1000 1000" xml:space="preserve" xmlns="http://www.w3.org/2000/svg"> 
 	<path d="M 63.080048 284.3758 L73.60256 284.3758 L73.60256 244.57436 L81.22157 244.57436 L81.22157 201.86945 L85.58462 201.86945 L85.58462 155.90855 L90.47242 155.90855 L90.47242 110.47242 L144.47241 110.47242 L144.47241 164.47241 L139.58463 164.47241 L139.58463 209.90855 L135.22157 209.90855 L135.22157 255.86945 L127.60256 255.86945 L127.60256 298.57434 L117.08005 298.57434 L117.08005 306.51898 L117.33813 306.51898 L117.33813 342.252 L125.65938 342.252 L125.65938 348.86508 L127.66952 348.86508 L127.66952 383.90723 L131.36496 383.90723 L131.36496 380.4043 L174.14948 380.4043 L174.14948 364.15662 L196.07962 364.15662 L196.07962 354.4122 L210.82213 354.4122 L210.82213 341.7971 L264.82214 341.7971 L264.82214 368.59085 L293.1313 368.59085 L293.1313 378.36203 L331.7755 378.36203 L331.7755 394.19995 L376.48642 394.19995 L376.48642 407.576 L418.73547 407.576 L418.73547 461.576 L364.73547 461.576 L364.73547 448.19995 L322.48642 448.19995 L322.48642 432.36203 L277.7755 432.36203 L277.7755 422.59085 L239.13127 422.59085 L239.13127 408.4122 L228.14948 408.4122 L228.14948 418.15662 L185.36496 418.15662 L185.36496 434.4043 L147.14131 434.4043 L147.14131 455.21286 L93.14131 455.21286 L93.14131 437.90723 L85.48653 437.90723 L85.48653 402.86508 L73.66952 402.86508 L73.66952 396.252 L71.65938 396.252 L71.65938 360.51898 L63.338127 360.51898 L63.338127 338.3758 L63.080048 338.3758 z"/>
<path d="M 530.4724 90.47242 L584.4724 90.47242 L584.4724 94.241394 L630.4104 94.241394 L630.4104 98.53513 L676.87305 98.53513 L676.87305 99.57289 L706.38306 99.57289 L706.38306 97.70716 L760.38306 97.70716 L760.38306 101.24996 L806.09485 101.24996 L806.09485 102.70421 L849.718 102.70421 L849.718 156.70421 L795.718 156.70421 L795.718 155.24997 L752.09485 155.24997 L752.09485 151.70715 L720.07983 151.70715 L720.07983 153.57289 L666.07983 153.57289 L666.07983 152.53513 L622.87305 152.53513 L622.87305 148.2414 L576.41034 148.2414 L576.41034 144.47241 L530.4724 144.47241 z"/>
<path d="M 330.4724 590.4724 L384.4724 590.4724 L384.4724 594.2414 L430.41037 594.2414 L430.41037 598.53516 L476.87308 598.53516 L476.87308 599.5729 L506.38306 599.5729 L506.38306 597.70715 L560.38306 597.70715 L560.38306 601.24994 L606.09485 601.24994 L606.09485 602.7042 L649.718 602.7042 L649.718 656.7042 L595.718 656.7042 L595.718 655.25 L552.09485 655.25 L552.09485 651.70715 L520.07983 651.70715 L520.07983 653.5729 L466.0798 653.5729 L466.0798 652.53516 L422.87308 652.53516 L422.87308 648.2414 L376.41037 648.2414 L376.41037 644.4724 L330.4724 644.4724 z"/>

 </svg>