<?xml version="1.0" encoding="UTF-8"?> 
 <!DOCTYPE svg  PUBLIC '-//W3C//DTD SVG 1.1//EN' 'http://www.w3.org/Graphics/SVG/1.1/DTD/svg11.dtd'> 
 <svg version="1.1" viewBox="0 0 1000 1000" xml:space="preserve" xmlns="http://www.w3.org/2000/svg"> 
 	<path d="M 60.47242 110.47242 L114.47242 110.47242 L114.47242 114.75956 L160.38615 114.75956 L160.38615 119.57146 L206.82465 119.57146 L206.82465 121.127396 L236.28621 121.127396 L236.28621 119.77982 L253.06877 119.77982 L253.06877 118.02662 L307.0688 118.02662 L307.0688 134.15424 L325.13232 134.15424 L325.13232 126.01458 L364.84482 126.01458 L364.84482 122.88168 L370.97473 122.88168 L370.97473 122.73924 L424.97473 122.73924 L424.97473 176.73924 L418.84482 176.73924 L418.84482 176.88168 L412.22653 176.88168 L412.22653 217.40721 L411.67496 217.40721 L411.67496 263.9994 L408.66153 263.9994 L408.66153 308.13004 L405.6215 308.13004 L405.6215 352.234 L400.5704 352.234 L400.5704 394.32672 L346.5704 394.32672 L346.5704 340.32672 L351.6215 340.32672 L351.6215 298.234 L354.66153 298.234 L354.66153 254.13004 L357.67496 254.13004 L357.67496 209.9994 L358.22653 209.9994 L358.22653 180.01459 L338.15424 180.01459 L338.15424 188.15424 L298.68063 188.15424 L298.68063 214.94412 L290.0581 214.94412 L290.0581 257.6272 L281.92328 257.6272 L281.92328 300.79803 L274.45483 300.79803 L274.45483 344.6352 L265.27576 344.6352 L265.27576 386.76178 L211.27574 386.76178 L211.27574 332.76178 L220.45482 332.76178 L220.45482 290.6352 L227.92326 290.6352 L227.92326 246.79802 L236.05809 246.79802 L236.05809 203.62721 L244.68063 203.62721 L244.68063 175.1274 L196.00719 175.1274 L196.00719 173.57146 L152.82465 173.57146 L152.82465 168.75955 L106.386154 168.75955 L106.386154 164.47241 L60.47242 164.47241 z"/>
<path d="M 530.4724 90.47242 L584.4724 90.47242 L584.4724 94.241394 L630.4104 94.241394 L630.4104 98.53513 L676.87305 98.53513 L676.87305 99.57289 L706.38306 99.57289 L706.38306 97.70716 L760.38306 97.70716 L760.38306 101.24996 L806.09485 101.24996 L806.09485 102.70421 L849.718 102.70421 L849.718 156.70421 L795.718 156.70421 L795.718 155.24997 L752.09485 155.24997 L752.09485 151.70715 L720.07983 151.70715 L720.07983 153.57289 L666.07983 153.57289 L666.07983 152.53513 L622.87305 152.53513 L622.87305 148.2414 L576.41034 148.2414 L576.41034 144.47241 L530.4724 144.47241 z"/>
<path d="M 330.4724 590.4724 L384.4724 590.4724 L384.4724 594.2414 L430.41037 594.2414 L430.41037 598.53516 L476.87308 598.53516 L476.87308 599.5729 L506.38306 599.5729 L506.38306 597.70715 L560.38306 597.70715 L560.38306 601.24994 L606.09485 601.24994 L606.09485 602.7042 L649.718 602.7042 L649.718 656.7042 L595.718 656.7042 L595.718 655.25 L552.09485 655.25 L552.09485 651.70715 L520.07983 651.70715 L520.07983 653.5729 L466.0798 653.5729 L466.0798 652.53516 L422.87308 652.53516 L422.87308 648.2414 L376.41037 648.2414 L376.41037 644.4724 L330.4724 644.4724 z"/>

 </svg>