<?xml version="1.0" encoding="UTF-8"?> 
 <!DOCTYPE svg  PUBLIC '-//W3C//DTD SVG 1.1//EN' 'http://www.w3.org/Graphics/SVG/1.1/DTD/svg11.dtd'> 
 <svg version="1.1" viewBox="0 0 1000 1000" xml:space="preserve" xmlns="http://www.w3.org/2000/svg"> 
 	<path d="M 62 305 L66 305 L66 262 L78 262 L78 186 L90 186 L90 110 L182 110 L182 202 L170 202 L170 278 L158 278 L158 351 L167 351 L167 391 L178 391 L178 357 L270 357 L270 360 L313 360 L313 384 L387 384 L387 406 L459 406 L459 498 L367 498 L367 476 L295 476 L295 452 L221 452 L221 449 L200 449 L200 483 L108 483 L108 443 L75 443 L75 397 L62 397 z"/>
<path d="M 520 30 L612 30 L612 34 L623 34 L623 110 L631 110 L631 187 L640 187 L640 464 L627 464 L627 540 L535 540 L535 448 L548 448 L548 202 L539 202 L539 126 L531 126 L531 122 L520 122 z"/>
<path d="M 530 220 L622 220 L622 238 L697 238 L697 330 L605 330 L605 312 L530 312 z"/>
<path d="M 330 590 L422 590 L422 593 L499 593 L499 596 L576 596 L576 600 L654 600 L654 692 L562 692 L562 688 L484 688 L484 685 L407 685 L407 682 L330 682 z"/>

 </svg>