<?xml version="1.0" encoding="UTF-8"?> 
 <!DOCTYPE svg  PUBLIC '-//W3C//DTD SVG 1.1//EN' 'http://www.w3.org/Graphics/SVG/1.1/DTD/svg11.dtd'> 
 <svg version="1.1" viewBox="0 0 1000 1000" xml:space="preserve" xmlns="http://www.w3.org/2000/svg"> 
 	<path d="M 209 102 L301 102 L301 130 L312 130 L312 149 L370 149 L370 140 L462 140 L462 232 L385 232 L385 241 L384 241 L384 246 L292 246 L292 222 L220 222 L220 194 L209 194 z"/>
<path d="M 103 49 L103 141 L195 141 L195 49 z"/>
<path d="M 88 125 L88 217 L180 217 L180 125 z"/>
<path d="M 65 263 L65 355 L157 355 L157 263 z"/>
<path d="M 90 336 L90 428 L182 428 L182 336 z"/>
<path d="M 93 335 L93 427 L185 427 L185 335 z"/>
<path d="M 91 399 L91 491 L183 491 L183 399 z"/>
<path d="M 168 391 L168 483 L260 483 L260 391 z"/>
<path d="M 195 393 L195 485 L287 485 L287 393 z"/>
<path d="M 271 397 L271 489 L363 489 L363 397 z"/>
<path d="M 349 402 L349 494 L441 494 L441 402 z"/>
<path d="M 530 90 L622 90 L622 93 L699 93 L699 96 L776 96 L776 100 L854 100 L854 192 L762 192 L762 188 L684 188 L684 185 L607 185 L607 182 L530 182 z"/>
<path d="M 330 590 L422 590 L422 593 L499 593 L499 596 L576 596 L576 600 L654 600 L654 692 L562 692 L562 688 L484 688 L484 685 L407 685 L407 682 L330 682 z"/>

 </svg>