<?xml version="1.0" encoding="UTF-8"?> 
 <!DOCTYPE svg  PUBLIC '-//W3C//DTD SVG 1.1//EN' 'http://www.w3.org/Graphics/SVG/1.1/DTD/svg11.dtd'> 
 <svg version="1.1" viewBox="0 0 1000 1000" xml:space="preserve" xmlns="http://www.w3.org/2000/svg"> 
 	<path d="M 209 102 L301 102 L301 130 L312 130 L312 149 L370 149 L370 140 L462 140 L462 232 L385 232 L385 241 L384 241 L384 246 L292 246 L292 222 L220 222 L220 194 L209 194 z"/>
<path d="M 103 49 L103 141 L195 141 L195 49 z"/>
<path d="M 88 125 L88 217 L180 217 L180 125 z"/>
<path d="M 65 263 L65 355 L157 355 L157 263 z"/>
<path d="M 90 336 L90 428 L182 428 L182 336 z"/>
<path d="M 93 335 L93 427 L185 427 L185 335 z"/>
<path d="M 91 399 L91 491 L183 491 L183 399 z"/>
<path d="M 168 391 L168 483 L260 483 L260 391 z"/>
<path d="M 195 393 L195 485 L287 485 L287 393 z"/>
<path d="M 271 397 L271 489 L363 489 L363 397 z"/>
<path d="M 349 402 L349 494 L441 494 L441 402 z"/>
<path d="M 520 30 L612 30 L612 34 L623 34 L623 110 L631 110 L631 187 L640 187 L640 464 L627 464 L627 540 L535 540 L535 448 L548 448 L548 202 L539 202 L539 126 L531 126 L531 122 L520 122 z"/>
<path d="M 530 220 L622 220 L622 238 L697 238 L697 330 L605 330 L605 312 L530 312 z"/>

 </svg>