<?xml version="1.0" encoding="UTF-8"?> 
 <!DOCTYPE svg  PUBLIC '-//W3C//DTD SVG 1.1//EN' 'http://www.w3.org/Graphics/SVG/1.1/DTD/svg11.dtd'> 
 <svg version="1.1" viewBox="0 0 1000 1000" xml:space="preserve" xmlns="http://www.w3.org/2000/svg"> 
 	<path d="M 62 305 L66 305 L66 262 L78 262 L78 186 L90 186 L90 110 L182 110 L182 202 L170 202 L170 278 L158 278 L158 351 L167 351 L167 391 L178 391 L178 357 L270 357 L270 360 L313 360 L313 384 L387 384 L387 406 L459 406 L459 498 L367 498 L367 476 L295 476 L295 452 L221 452 L221 449 L200 449 L200 483 L108 483 L108 443 L75 443 L75 397 L62 397 z"/>
<path d="M 530 90 L622 90 L622 93 L699 93 L699 96 L776 96 L776 100 L854 100 L854 192 L762 192 L762 188 L684 188 L684 185 L607 185 L607 182 L530 182 z"/>
<path d="M 330 590 L422 590 L422 593 L499 593 L499 596 L576 596 L576 600 L654 600 L654 692 L562 692 L562 688 L484 688 L484 685 L407 685 L407 682 L330 682 z"/>

 </svg>