<?xml version="1.0" encoding="UTF-8"?> 
 <!DOCTYPE svg  PUBLIC '-//W3C//DTD SVG 1.1//EN' 'http://www.w3.org/Graphics/SVG/1.1/DTD/svg11.dtd'> 
 <svg version="1.1" viewBox="0 0 1000 1000" xml:space="preserve" xmlns="http://www.w3.org/2000/svg"> 
 	<path d="M 37.016197 244.71791 L91.0162 244.71791 L91.0162 248.61937 L135.92578 248.61937 L135.92578 253.30156 L181.61603 253.30156 L181.61603 255.97272 L225.29526 255.97272 L225.29526 258.61725 L268.94785 258.61725 L268.94785 258.79993 L310.1386 258.79993 L310.1386 265.04932 L345.44434 265.04932 L345.44434 240.93643 L345.07053 240.93643 L345.07053 186.93643 L349.2576 186.93643 L349.2576 161.38661 L336.24518 161.38661 L336.24518 162.48529 L282.24518 162.48529 L282.24518 161.49544 L250.17 161.49544 L250.17 165.9141 L206.9332 165.9141 L206.9332 167.42926 L152.9332 167.42926 L152.9332 165.68846 L106.44043 165.68846 L106.44043 164.47241 L60.47242 164.47241 L60.47242 110.47242 L114.47242 110.47242 L114.47242 111.68846 L160.44043 111.68846 L160.44043 113.42926 L196.17 113.42926 L196.17 111.9141 L236.50331 111.9141 L236.50331 107.49544 L290.5033 107.49544 L290.5033 108.4853 L325.8984 108.4853 L325.8984 107.38661 L351.734 107.38661 L351.734 99.700005 L405.734 99.700005 L405.734 106.0535 L423.31726 106.0535 L423.31726 160.0535 L403.2576 160.0535 L403.2576 198.17354 L399.07053 198.17354 L399.07053 234.2602 L399.44434 234.2602 L399.44434 266.89124 L400.2461 266.89124 L400.2461 320.89124 L393.7063 320.89124 L393.7063 329.4721 L339.7063 329.4721 L339.7063 319.04932 L303.39606 319.04932 L303.39606 312.79993 L256.1386 312.79993 L256.1386 312.61725 L214.94785 312.61725 L214.94785 309.97272 L171.29526 309.97272 L171.29526 307.30157 L127.61603 307.30157 L127.61603 302.6194 L112.984314 302.6194 L112.984314 338.37088 L118.536026 338.37088 L118.536026 383.71735 L126.268845 383.71735 L126.268845 415.6221 L168.35297 415.6221 L168.35297 408.0521 L210.5669 408.0521 L210.5669 400.39087 L254.22047 400.39087 L254.22047 394.16928 L299.0553 394.16928 L299.0553 389.1289 L344.9557 389.1289 L344.9557 385.15417 L398.9557 385.15417 L398.9557 439.15417 L353.0553 439.15417 L353.0553 443.1289 L308.22046 443.1289 L308.22046 448.16928 L264.5669 448.16928 L264.5669 454.39087 L222.35297 454.39087 L222.35297 462.0521 L180.04779 462.0521 L180.04779 469.6221 L133.7461 469.6221 L133.7461 473.19556 L132.37106 473.19556 L132.37106 481.4332 L78.37107 481.4332 L78.37107 437.71735 L72.268845 437.71735 L72.268845 392.37088 L64.536026 392.37088 L64.536026 349.20554 L58.98431 349.20554 L58.98431 304.99814 L52.39056 304.99814 L52.39056 298.7179 L37.016197 298.7179 z"/>
<path d="M 520.4724 30.472418 L532.47363 30.472418 L532.47363 27.699657 L586.47363 27.699657 L586.47363 73.95632 L593.58734 73.95632 L593.58734 116.957016 L597.44507 116.957016 L597.44507 157.05421 L598.39935 157.05421 L598.39935 202.55998 L604.76215 202.55998 L604.76215 245.97714 L609.0364 245.97714 L609.0364 289.15988 L613.0762 289.15988 L613.0762 295.0804 L615.32947 295.0804 L615.32947 349.0804 L608.5347 349.0804 L608.5347 393.03757 L600.0294 393.03757 L600.0294 435.28406 L596.0849 435.28406 L596.0849 482.09143 L586.02856 482.09143 L586.02856 522.787 L580.83655 522.787 L580.83655 568.3468 L526.83655 568.3468 L526.83655 514.3468 L532.02856 514.3468 L532.02856 468.787 L542.0849 468.787 L542.0849 428.09143 L546.0294 428.09143 L546.0294 381.28406 L554.5347 381.28406 L554.5347 339.03757 L559.0762 339.03757 L559.0762 299.97714 L555.0364 299.97714 L555.0364 256.56 L550.76215 256.56 L550.76215 211.05421 L544.39935 211.05421 L544.39935 170.95702 L543.44507 170.95702 L543.44507 127.95632 L539.58734 127.95632 L539.58734 84.47242 L520.4724 84.47242 z"/>
<path d="M 530.4724 220.47241 L584.4724 220.47241 L584.4724 221.34732 L630.4332 221.34732 L630.4332 244.83229 L667.5399 244.83229 L667.5399 298.83228 L613.5399 298.83228 L613.5399 278.38452 L575.7431 278.38452 L575.7431 274.4724 L530.4724 274.4724 z"/>
<path d="M 330.4724 590.4724 L384.4724 590.4724 L384.4724 594.2414 L430.41037 594.2414 L430.41037 598.53516 L476.87308 598.53516 L476.87308 599.5729 L506.38306 599.5729 L506.38306 597.70715 L560.38306 597.70715 L560.38306 601.24994 L606.09485 601.24994 L606.09485 602.7042 L649.718 602.7042 L649.718 656.7042 L595.718 656.7042 L595.718 655.25 L552.09485 655.25 L552.09485 651.70715 L520.07983 651.70715 L520.07983 653.5729 L466.0798 653.5729 L466.0798 652.53516 L422.87308 652.53516 L422.87308 648.2414 L376.41037 648.2414 L376.41037 644.4724 L330.4724 644.4724 z"/>

 </svg>