<?xml version="1.0" encoding="UTF-8"?> 
 <!DOCTYPE svg  PUBLIC '-//W3C//DTD SVG 1.1//EN' 'http://www.w3.org/Graphics/SVG/1.1/DTD/svg11.dtd'> 
 <svg version="1.1" viewBox="0 0 1000 1000" xml:space="preserve" xmlns="http://www.w3.org/2000/svg"> 
 	<path d="M 70 120 L162 120 L162 129 L238 129 L238 138 L314 138 L314 148 L391 148 L391 240 L299 240 L299 230 L222 230 L222 221 L146 221 L146 212 L70 212 z"/>
<path d="M 530 90 L622 90 L622 93 L699 93 L699 96 L776 96 L776 100 L854 100 L854 192 L762 192 L762 188 L684 188 L684 185 L607 185 L607 182 L530 182 z"/>

 </svg>