<?xml version="1.0" encoding="UTF-8"?> 
 <!DOCTYPE svg  PUBLIC '-//W3C//DTD SVG 1.1//EN' 'http://www.w3.org/Graphics/SVG/1.1/DTD/svg11.dtd'> 
 <svg version="1.1" viewBox="0 0 1000 1000" xml:space="preserve" xmlns="http://www.w3.org/2000/svg"> 
 	<path d="M 520.4724 30.472418 L532.47363 30.472418 L532.47363 27.699657 L586.47363 27.699657 L586.47363 73.95632 L593.58734 73.95632 L593.58734 116.957016 L597.44507 116.957016 L597.44507 157.05421 L598.39935 157.05421 L598.39935 202.55998 L604.76215 202.55998 L604.76215 245.97714 L609.0364 245.97714 L609.0364 289.15988 L613.0762 289.15988 L613.0762 295.0804 L615.32947 295.0804 L615.32947 349.0804 L608.5347 349.0804 L608.5347 393.03757 L600.0294 393.03757 L600.0294 435.28406 L596.0849 435.28406 L596.0849 482.09143 L586.02856 482.09143 L586.02856 522.787 L580.83655 522.787 L580.83655 568.3468 L526.83655 568.3468 L526.83655 514.3468 L532.02856 514.3468 L532.02856 468.787 L542.0849 468.787 L542.0849 428.09143 L546.0294 428.09143 L546.0294 381.28406 L554.5347 381.28406 L554.5347 339.03757 L559.0762 339.03757 L559.0762 299.97714 L555.0364 299.97714 L555.0364 256.56 L550.76215 256.56 L550.76215 211.05421 L544.39935 211.05421 L544.39935 170.95702 L543.44507 170.95702 L543.44507 127.95632 L539.58734 127.95632 L539.58734 84.47242 L520.4724 84.47242 z"/>
<path d="M 530.4724 220.47241 L584.4724 220.47241 L584.4724 221.34732 L630.4332 221.34732 L630.4332 244.83229 L667.5399 244.83229 L667.5399 298.83228 L613.5399 298.83228 L613.5399 278.38452 L575.7431 278.38452 L575.7431 274.4724 L530.4724 274.4724 z"/>
<path d="M 330.4724 590.4724 L384.4724 590.4724 L384.4724 594.2414 L430.41037 594.2414 L430.41037 598.53516 L476.87308 598.53516 L476.87308 599.5729 L506.38306 599.5729 L506.38306 597.70715 L560.38306 597.70715 L560.38306 601.24994 L606.09485 601.24994 L606.09485 602.7042 L649.718 602.7042 L649.718 656.7042 L595.718 656.7042 L595.718 655.25 L552.09485 655.25 L552.09485 651.70715 L520.07983 651.70715 L520.07983 653.5729 L466.0798 653.5729 L466.0798 652.53516 L422.87308 652.53516 L422.87308 648.2414 L376.41037 648.2414 L376.41037 644.4724 L330.4724 644.4724 z"/>

 </svg>