<?xml version="1.0" encoding="UTF-8"?> 
 <!DOCTYPE svg  PUBLIC '-//W3C//DTD SVG 1.1//EN' 'http://www.w3.org/Graphics/SVG/1.1/DTD/svg11.dtd'> 
 <svg version="1.1" viewBox="0 0 1000 1000" xml:space="preserve" xmlns="http://www.w3.org/2000/svg"> 
 	<path d="M 70 120 L162 120 L162 129 L238 129 L238 138 L314 138 L314 148 L391 148 L391 240 L299 240 L299 230 L222 230 L222 221 L146 221 L146 212 L70 212 z"/>
<path d="M 520 30 L612 30 L612 34 L623 34 L623 110 L631 110 L631 187 L640 187 L640 464 L627 464 L627 540 L535 540 L535 448 L548 448 L548 202 L539 202 L539 126 L531 126 L531 122 L520 122 z"/>
<path d="M 530 220 L622 220 L622 238 L697 238 L697 330 L605 330 L605 312 L530 312 z"/>

 </svg>